<svg xmlns="http://www.w3.org/2000/svg" data-name="Layer 1" viewBox="0 0 100 125" x="0px" y="0px"><title>collections_06</title><path d="M79.7,50.65A5,5,0,0,0,79,46.88L64.27,23.81a5,5,0,0,0-6.91-1.52L20,46.21a5,5,0,0,0-1.52,6.91L33.22,76.19a5,5,0,0,0,3.14,2.19,5,5,0,0,0,1.08.12,5,5,0,0,0,2.68-.79L77.51,53.79A5,5,0,0,0,79.7,50.65ZM76.43,52.1L39,76a3,3,0,0,1-4.14-.91L20.14,52a3,3,0,0,1,.91-4.14L58.44,24a3,3,0,0,1,4.14.91L77.34,48A3,3,0,0,1,76.43,52.1Zm-15-21.59L51.08,52.65a1,1,0,0,1-.91.58H25.36a1,1,0,0,1,0-2H49.53l10-21.56A1,1,0,0,1,61.39,30.51ZM43.74,59.69L38.27,71.42a1,1,0,1,1-1.81-.84l5.46-11.73A1,1,0,0,1,43.74,59.69ZM73.5,48.87a1,1,0,0,1-1,1h-13a1,1,0,0,1,0-2h13A1,1,0,0,1,73.5,48.87ZM70.66,65.92H81a1,1,0,0,1,0,2H70.66A1,1,0,0,1,70.66,65.92ZM82,74.65a1,1,0,0,1-1,1H53.64a1,1,0,0,1,0-2H81A1,1,0,0,1,82,74.65Z"/><text x="0" y="115" fill="#000000" font-size="5px" font-weight="bold" font-family="'Helvetica Neue', Helvetica, Arial-Unicode, Arial, Sans-serif">Created by Hare Krishna</text><text x="0" y="120" fill="#000000" font-size="5px" font-weight="bold" font-family="'Helvetica Neue', Helvetica, Arial-Unicode, Arial, Sans-serif">from the Noun Project</text></svg>